<?xml version="1.0" encoding="UTF-8"?>
<svg viewBox="0 0 1000 800" xmlns="http://www.w3.org/2000/svg">
  <defs>
    <style type="text/css">
      @import url('https://fonts.googleapis.com/css2?family=Roboto:wght@400;600;700');
      text { font-family: 'Roboto', sans-serif; }
    </style>
    <marker id="arrowhead" markerWidth="10" markerHeight="10" refX="5" refY="5" orient="auto">
      <polygon points="0 0, 10 5, 0 10" fill="#64748b"/>
    </marker>
  </defs>
  
  <rect width="1000" height="800" fill="#f8fafc"/>
  <text x="500" y="35" font-size="24" font-weight="bold" text-anchor="middle" fill="#1e293b">Complete Data Security Workflow</text>
  
  <rect x="30" y="85" width="940" height="160" fill="#e0f2fe" stroke="#0284c7" stroke-width="2" rx="8"/>
  <text x="500" y="115" font-size="14" font-weight="bold" fill="#0c4a6e">Stage 1: Data Collection and Validation</text>
  
  <circle cx="100" cy="190" r="20" fill="#0284c7"/>
  <text x="100" y="198" font-size="11" text-anchor="middle" fill="white">1</text>
  
  <path d="M 120 190 L 155 190" stroke="#64748b" stroke-width="2" fill="none" marker-end="url(#arrowhead)"/>
  
  <circle cx="195" cy="190" r="20" fill="#0284c7"/>
  <text x="195" y="198" font-size="11" text-anchor="middle" fill="white">2</text>
  
  <path d="M 215 190 L 250 190" stroke="#64748b" stroke-width="2" fill="none" marker-end="url(#arrowhead)"/>
  
  <circle cx="290" cy="190" r="20" fill="#0284c7"/>
  <text x="290" y="198" font-size="11" text-anchor="middle" fill="white">3</text>
  
  <path d="M 310 190 L 345 190" stroke="#64748b" stroke-width="2" fill="none" marker-end="url(#arrowhead)"/>
  
  <circle cx="385" cy="190" r="20" fill="#0284c7"/>
  <text x="385" y="198" font-size="11" text-anchor="middle" fill="white">4</text>
  
  <text x="100" y="225" font-size="9" text-anchor="middle" fill="#1e293b">Collect</text>
  <text x="195" y="225" font-size="9" text-anchor="middle" fill="#1e293b">Validate</text>
  <text x="290" y="225" font-size="9" text-anchor="middle" fill="#1e293b">Scan</text>
  <text x="385" y="225" font-size="9" text-anchor="middle" fill="#1e293b">Classify</text>
  
  <rect x="30" y="265" width="940" height="160" fill="#fef3c7" stroke="#f59e0b" stroke-width="2" rx="8"/>
  <text x="500" y="295" font-size="14" font-weight="bold" fill="#92400e">Stage 2: Encryption and Protection</text>
  
  <rect x="60" y="325" width="200" height="85" fill="white" stroke="#f59e0b" stroke-width="1" rx="4"/>
  <text x="160" y="350" font-size="11" font-weight="bold" text-anchor="middle" fill="#92400e">At Rest</text>
  <text x="160" y="370" font-size="9" text-anchor="middle" fill="#475569">Database encryption</text>
  <text x="160" y="385" font-size="9" text-anchor="middle" fill="#475569">Secure storage</text>
  
  <rect x="290" y="325" width="200" height="85" fill="white" stroke="#f59e0b" stroke-width="1" rx="4"/>
  <text x="390" y="350" font-size="11" font-weight="bold" text-anchor="middle" fill="#92400e">In Transit</text>
  <text x="390" y="370" font-size="9" text-anchor="middle" fill="#475569">TLS 1.3 encryption</text>
  <text x="390" y="385" font-size="9" text-anchor="middle" fill="#475569">End-to-end security</text>
  
  <rect x="520" y="325" width="200" height="85" fill="white" stroke="#f59e0b" stroke-width="1" rx="4"/>
  <text x="620" y="350" font-size="11" font-weight="bold" text-anchor="middle" fill="#92400e">In Use</text>
  <text x="620" y="370" font-size="9" text-anchor="middle" fill="#475569">Memory protection</text>
  <text x="620" y="385" font-size="9" text-anchor="middle" fill="#475569">Secure processing</text>
  
  <rect x="750" y="325" width="190" height="85" fill="white" stroke="#f59e0b" stroke-width="1" rx="4"/>
  <text x="845" y="350" font-size="11" font-weight="bold" text-anchor="middle" fill="#92400e">Key Management</text>
  <text x="845" y="370" font-size="9" text-anchor="middle" fill="#475569">Rotation policy</text>
  <text x="845" y="385" font-size="9" text-anchor="middle" fill="#475569">Access control</text>
  
  <rect x="30" y="445" width="940" height="160" fill="#f0fdf4" stroke="#22c55e" stroke-width="2" rx="8"/>
  <text x="500" y="475" font-size="14" font-weight="bold" fill="#166534">Stage 3: Access Control and Monitoring</text>
  
  <circle cx="100" cy="550" r="20" fill="#22c55e"/>
  <text x="100" y="558" font-size="11" text-anchor="middle" fill="white">5</text>
  
  <path d="M 120 550 L 155 550" stroke="#64748b" stroke-width="2" fill="none" marker-end="url(#arrowhead)"/>
  
  <circle cx="195" cy="550" r="20" fill="#22c55e"/>
  <text x="195" y="558" font-size="11" text-anchor="middle" fill="white">6</text>
  
  <path d="M 215 550 L 250 550" stroke="#64748b" stroke-width="2" fill="none" marker-end="url(#arrowhead)"/>
  
  <circle cx="290" cy="550" r="20" fill="#22c55e"/>
  <text x="290" y="558" font-size="11" text-anchor="middle" fill="white">7</text>
  
  <path d="M 310 550 L 345 550" stroke="#64748b" stroke-width="2" fill="none" marker-end="url(#arrowhead)"/>
  
  <circle cx="385" cy="550" r="20" fill="#22c55e"/>
  <text x="385" y="558" font-size="11" text-anchor="middle" fill="white">8</text>
  
  <text x="100" y="585" font-size="9" text-anchor="middle" fill="#1e293b">Authenticate</text>
  <text x="195" y="585" font-size="9" text-anchor="middle" fill="#1e293b">Authorize</text>
  <text x="290" y="585" font-size="9" text-anchor="middle" fill="#1e293b">Track</text>
  <text x="385" y="585" font-size="9" text-anchor="middle" fill="#1e293b">Alert</text>
  
  <rect x="30" y="625" width="940" height="160" fill="#fee2e2" stroke="#ef4444" stroke-width="2" rx="8"/>
  <text x="500" y="655" font-size="14" font-weight="bold" fill="#b91c1c">Stage 4: Incident Response and Compliance</text>
  
  <rect x="60" y="685" width="210" height="85" fill="white" stroke="#ef4444" stroke-width="1" rx="4"/>
  <text x="165" y="710" font-size="10" font-weight="bold" text-anchor="middle" fill="#b91c1c">Detect</text>
  <text x="165" y="730" font-size="9" text-anchor="middle" fill="#475569">Anomaly detection</text>
  <text x="165" y="745" font-size="9" text-anchor="middle" fill="#475569">Real-time alerts</text>
  
  <rect x="300" y="685" width="210" height="85" fill="white" stroke="#ef4444" stroke-width="1" rx="4"/>
  <text x="405" y="710" font-size="10" font-weight="bold" text-anchor="middle" fill="#b91c1c">Respond</text>
  <text x="405" y="730" font-size="9" text-anchor="middle" fill="#475569">Incident plan</text>
  <text x="405" y="745" font-size="9" text-anchor="middle" fill="#475569">Quick mitigation</text>
  
  <rect x="540" y="685" width="210" height="85" fill="white" stroke="#ef4444" stroke-width="1" rx="4"/>
  <text x="645" y="710" font-size="10" font-weight="bold" text-anchor="middle" fill="#b91c1c">Report</text>
  <text x="645" y="730" font-size="9" text-anchor="middle" fill="#475569">Audit logs</text>
  <text x="645" y="745" font-size="9" text-anchor="middle" fill="#475569">Compliance proof</text>
  
  <rect x="780" y="685" width="170" height="85" fill="white" stroke="#ef4444" stroke-width="1" rx="4"/>
  <text x="865" y="710" font-size="10" font-weight="bold" text-anchor="middle" fill="#b91c1c">Recover</text>
  <text x="865" y="730" font-size="9" text-anchor="middle" fill="#475569">Data restoration</text>
  <text x="865" y="745" font-size="9" text-anchor="middle" fill="#475569">Service restore</text>

  <g id="platform-watermark">
    <rect x="60%" y="92%" width="38%" height="6%" rx="6" fill="#ffffff" opacity="0.75"/>
    <text x="97%" y="96%" text-anchor="end" dominant-baseline="middle"
          font-size="12" font-family="Arial, sans-serif" fill="#0f172a" opacity="0.55">MaiPDF • Online</text>
  </g>
</svg>