<?xml version="1.0" encoding="UTF-8"?>
<svg viewBox="0 0 1000 700" xmlns="http://www.w3.org/2000/svg">
  <defs>
    <style type="text/css">
      @import url('https://fonts.googleapis.com/css2?family=Roboto:wght@400;600;700');
      text { font-family: 'Roboto', sans-serif; }
    </style>
    <marker id="arrowhead" markerWidth="10" markerHeight="10" refX="5" refY="5" orient="auto">
      <polygon points="0 0, 10 5, 0 10" fill="#64748b"/>
    </marker>
  </defs>
  
  <rect width="1000" height="700" fill="#f8fafc"/>
  <text x="500" y="35" font-size="24" font-weight="bold" text-anchor="middle" fill="#1e293b">Document Security Architecture</text>
  
  <rect x="50" y="85" width="900" height="140" fill="#e0f2fe" stroke="#0284c7" stroke-width="2" rx="8"/>
  <text x="500" y="115" font-size="14" font-weight="bold" fill="#0c4a6e">Upload and Processing Layer</text>
  
  <circle cx="110" cy="180" r="25" fill="#3b82f6"/>
  <text x="110" y="190" font-size="12" text-anchor="middle" fill="white">1</text>
  
  <path d="M 135 180 L 175 180" stroke="#64748b" stroke-width="2" fill="none" marker-end="url(#arrowhead)"/>
  
  <circle cx="220" cy="180" r="25" fill="#3b82f6"/>
  <text x="220" y="190" font-size="12" text-anchor="middle" fill="white">2</text>
  
  <path d="M 245 180 L 285 180" stroke="#64748b" stroke-width="2" fill="none" marker-end="url(#arrowhead)"/>
  
  <circle cx="330" cy="180" r="25" fill="#3b82f6"/>
  <text x="330" y="190" font-size="12" text-anchor="middle" fill="white">3</text>
  
  <path d="M 355 180 L 395 180" stroke="#64748b" stroke-width="2" fill="none" marker-end="url(#arrowhead)"/>
  
  <circle cx="440" cy="180" r="25" fill="#3b82f6"/>
  <text x="440" y="190" font-size="12" text-anchor="middle" fill="white">4</text>
  
  <path d="M 465 180 L 505 180" stroke="#64748b" stroke-width="2" fill="none" marker-end="url(#arrowhead)"/>
  
  <circle cx="550" cy="180" r="25" fill="#3b82f6"/>
  <text x="550" y="190" font-size="12" text-anchor="middle" fill="white">5</text>
  
  <text x="110" y="230" font-size="10" text-anchor="middle" fill="#1e293b">File Upload</text>
  <text x="220" y="230" font-size="10" text-anchor="middle" fill="#1e293b">Format Check</text>
  <text x="330" y="230" font-size="10" text-anchor="middle" fill="#1e293b">Virus Scan</text>
  <text x="440" y="230" font-size="10" text-anchor="middle" fill="#1e293b">Encryption</text>
  <text x="550" y="230" font-size="10" text-anchor="middle" fill="#1e293b">Storage</text>
  
  <rect x="50" y="250" width="900" height="140" fill="#fef3c7" stroke="#f59e0b" stroke-width="2" rx="8"/>
  <text x="500" y="280" font-size="14" font-weight="bold" fill="#92400e">Security and Access Control Layer</text>
  
  <rect x="70" y="310" width="170" height="70" fill="white" stroke="#f59e0b" stroke-width="1" rx="4"/>
  <text x="155" y="330" font-size="10" font-weight="bold" text-anchor="middle" fill="#92400e">Authentication</text>
  <text x="155" y="350" font-size="9" text-anchor="middle" fill="#475569">Multi-factor auth</text>
  
  <rect x="260" y="310" width="170" height="70" fill="white" stroke="#f59e0b" stroke-width="1" rx="4"/>
  <text x="345" y="330" font-size="10" font-weight="bold" text-anchor="middle" fill="#92400e">Authorization</text>
  <text x="345" y="350" font-size="9" text-anchor="middle" fill="#475569">Role-based access</text>
  
  <rect x="450" y="310" width="170" height="70" fill="white" stroke="#f59e0b" stroke-width="1" rx="4"/>
  <text x="535" y="330" font-size="10" font-weight="bold" text-anchor="middle" fill="#92400e">Watermarking</text>
  <text x="535" y="350" font-size="9" text-anchor="middle" fill="#475569">Dynamic protection</text>
  
  <rect x="640" y="310" width="170" height="70" fill="white" stroke="#f59e0b" stroke-width="1" rx="4"/>
  <text x="725" y="330" font-size="10" font-weight="bold" text-anchor="middle" fill="#92400e">Tracking</text>
  <text x="725" y="350" font-size="9" text-anchor="middle" fill="#475569">Real-time monitoring</text>
  
  <rect x="50" y="410" width="900" height="140" fill="#f0fdf4" stroke="#22c55e" stroke-width="2" rx="8"/>
  <text x="500" y="440" font-size="14" font-weight="bold" fill="#166534">Distribution and Sharing Layer</text>
  
  <circle cx="110" cy="505" r="25" fill="#22c55e"/>
  <text x="110" y="515" font-size="12" text-anchor="middle" fill="white">6</text>
  
  <path d="M 135 505 L 175 505" stroke="#64748b" stroke-width="2" fill="none" marker-end="url(#arrowhead)"/>
  
  <circle cx="220" cy="505" r="25" fill="#22c55e"/>
  <text x="220" y="515" font-size="12" text-anchor="middle" fill="white">7</text>
  
  <path d="M 245 505 L 285 505" stroke="#64748b" stroke-width="2" fill="none" marker-end="url(#arrowhead)"/>
  
  <circle cx="330" cy="505" r="25" fill="#22c55e"/>
  <text x="330" y="515" font-size="12" text-anchor="middle" fill="white">8</text>
  
  <path d="M 355 505 L 395 505" stroke="#64748b" stroke-width="2" fill="none" marker-end="url(#arrowhead)"/>
  
  <circle cx="440" cy="505" r="25" fill="#22c55e"/>
  <text x="440" y="515" font-size="12" text-anchor="middle" fill="white">9</text>
  
  <path d="M 465 505 L 505 505" stroke="#64748b" stroke-width="2" fill="none" marker-end="url(#arrowhead)"/>
  
  <circle cx="550" cy="505" r="25" fill="#22c55e"/>
  <text x="550" y="515" font-size="12" text-anchor="middle" fill="white">10</text>
  
  <text x="110" y="555" font-size="10" text-anchor="middle" fill="#1e293b">Generate Link</text>
  <text x="220" y="555" font-size="10" text-anchor="middle" fill="#1e293b">Create QR</text>
  <text x="330" y="555" font-size="10" text-anchor="middle" fill="#1e293b">Share</text>
  <text x="440" y="555" font-size="10" text-anchor="middle" fill="#1e293b">Notification</text>
  <text x="550" y="555" font-size="10" text-anchor="middle" fill="#1e293b">Monitor</text>
  
  <rect x="50" y="570" width="900" height="110" fill="#f3e8ff" stroke="#a855f7" stroke-width="2" rx="8"/>
  <text x="500" y="595" font-size="12" font-weight="bold" fill="#6b21a8">Security Features</text>
  <text x="500" y="615" font-size="10" text-anchor="middle" fill="#475569">Military-grade encryption | Audit logs | Compliance ready | Instant revocation | Data protection</text>
</svg>