<?xml version="1.0" encoding="UTF-8"?>
<svg viewBox="0 0 1000 800" xmlns="http://www.w3.org/2000/svg">
  <defs>
    <style type="text/css">
      @import url('https://fonts.googleapis.com/css2?family=Noto+Sans+SC:wght@400;600;700');
      text { font-family: 'Noto Sans SC', sans-serif; }
    </style>
    <marker id="arrowhead" markerWidth="10" markerHeight="10" refX="5" refY="5" orient="auto">
      <polygon points="0 0, 10 5, 0 10" fill="#64748b"/>
    </marker>
  </defs>
  
  <rect width="1000" height="800" fill="#f8fafc"/>
  <text x="500" y="35" font-size="24" font-weight="bold" text-anchor="middle" fill="#1e293b">完整数据安全工作流</text>
  
  <rect x="30" y="85" width="940" height="160" fill="#e0f2fe" stroke="#0284c7" stroke-width="2" rx="8"/>
  <text x="500" y="115" font-size="14" font-weight="bold" fill="#0c4a6e">阶段1：数据收集和验证</text>
  
  <circle cx="100" cy="190" r="20" fill="#0284c7"/>
  <text x="100" y="198" font-size="11" text-anchor="middle" fill="white">1</text>
  
  <path d="M 120 190 L 155 190" stroke="#64748b" stroke-width="2" fill="none" marker-end="url(#arrowhead)"/>
  
  <circle cx="195" cy="190" r="20" fill="#0284c7"/>
  <text x="195" y="198" font-size="11" text-anchor="middle" fill="white">2</text>
  
  <path d="M 215 190 L 250 190" stroke="#64748b" stroke-width="2" fill="none" marker-end="url(#arrowhead)"/>
  
  <circle cx="290" cy="190" r="20" fill="#0284c7"/>
  <text x="290" y="198" font-size="11" text-anchor="middle" fill="white">3</text>
  
  <path d="M 310 190 L 345 190" stroke="#64748b" stroke-width="2" fill="none" marker-end="url(#arrowhead)"/>
  
  <circle cx="385" cy="190" r="20" fill="#0284c7"/>
  <text x="385" y="198" font-size="11" text-anchor="middle" fill="white">4</text>
  
  <text x="100" y="225" font-size="9" text-anchor="middle" fill="#1e293b">收集</text>
  <text x="195" y="225" font-size="9" text-anchor="middle" fill="#1e293b">验证</text>
  <text x="290" y="225" font-size="9" text-anchor="middle" fill="#1e293b">扫描</text>
  <text x="385" y="225" font-size="9" text-anchor="middle" fill="#1e293b">分类</text>
  
  <rect x="30" y="265" width="940" height="160" fill="#fef3c7" stroke="#f59e0b" stroke-width="2" rx="8"/>
  <text x="500" y="295" font-size="14" font-weight="bold" fill="#92400e">阶段2：加密和保护</text>
  
  <rect x="60" y="325" width="200" height="85" fill="white" stroke="#f59e0b" stroke-width="1" rx="4"/>
  <text x="160" y="350" font-size="11" font-weight="bold" text-anchor="middle" fill="#92400e">静态数据</text>
  <text x="160" y="370" font-size="9" text-anchor="middle" fill="#475569">数据库加密</text>
  <text x="160" y="385" font-size="9" text-anchor="middle" fill="#475569">安全存储</text>
  
  <rect x="290" y="325" width="200" height="85" fill="white" stroke="#f59e0b" stroke-width="1" rx="4"/>
  <text x="390" y="350" font-size="11" font-weight="bold" text-anchor="middle" fill="#92400e">传输数据</text>
  <text x="390" y="370" font-size="9" text-anchor="middle" fill="#475569">TLS 1.3加密</text>
  <text x="390" y="385" font-size="9" text-anchor="middle" fill="#475569">端到端安全</text>
  
  <rect x="520" y="325" width="200" height="85" fill="white" stroke="#f59e0b" stroke-width="1" rx="4"/>
  <text x="620" y="350" font-size="11" font-weight="bold" text-anchor="middle" fill="#92400e">使用中数据</text>
  <text x="620" y="370" font-size="9" text-anchor="middle" fill="#475569">内存保护</text>
  <text x="620" y="385" font-size="9" text-anchor="middle" fill="#475569">安全处理</text>
  
  <rect x="750" y="325" width="190" height="85" fill="white" stroke="#f59e0b" stroke-width="1" rx="4"/>
  <text x="845" y="350" font-size="11" font-weight="bold" text-anchor="middle" fill="#92400e">密钥管理</text>
  <text x="845" y="370" font-size="9" text-anchor="middle" fill="#475569">轮换策略</text>
  <text x="845" y="385" font-size="9" text-anchor="middle" fill="#475569">访问控制</text>
  
  <rect x="30" y="445" width="940" height="160" fill="#f0fdf4" stroke="#22c55e" stroke-width="2" rx="8"/>
  <text x="500" y="475" font-size="14" font-weight="bold" fill="#166534">阶段3：访问控制和监控</text>
  
  <circle cx="100" cy="550" r="20" fill="#22c55e"/>
  <text x="100" y="558" font-size="11" text-anchor="middle" fill="white">5</text>
  
  <path d="M 120 550 L 155 550" stroke="#64748b" stroke-width="2" fill="none" marker-end="url(#arrowhead)"/>
  
  <circle cx="195" cy="550" r="20" fill="#22c55e"/>
  <text x="195" y="558" font-size="11" text-anchor="middle" fill="white">6</text>
  
  <path d="M 215 550 L 250 550" stroke="#64748b" stroke-width="2" fill="none" marker-end="url(#arrowhead)"/>
  
  <circle cx="290" cy="550" r="20" fill="#22c55e"/>
  <text x="290" y="558" font-size="11" text-anchor="middle" fill="white">7</text>
  
  <path d="M 310 550 L 345 550" stroke="#64748b" stroke-width="2" fill="none" marker-end="url(#arrowhead)"/>
  
  <circle cx="385" cy="550" r="20" fill="#22c55e"/>
  <text x="385" y="558" font-size="11" text-anchor="middle" fill="white">8</text>
  
  <text x="100" y="585" font-size="9" text-anchor="middle" fill="#1e293b">身份验证</text>
  <text x="195" y="585" font-size="9" text-anchor="middle" fill="#1e293b">权限授予</text>
  <text x="290" y="585" font-size="9" text-anchor="middle" fill="#1e293b">追踪记录</text>
  <text x="385" y="585" font-size="9" text-anchor="middle" fill="#1e293b">告警通知</text>
  
  <rect x="30" y="625" width="940" height="160" fill="#fee2e2" stroke="#ef4444" stroke-width="2" rx="8"/>
  <text x="500" y="655" font-size="14" font-weight="bold" fill="#b91c1c">阶段4：事件响应和合规</text>
  
  <rect x="60" y="685" width="210" height="85" fill="white" stroke="#ef4444" stroke-width="1" rx="4"/>
  <text x="165" y="710" font-size="10" font-weight="bold" text-anchor="middle" fill="#b91c1c">检测</text>
  <text x="165" y="730" font-size="9" text-anchor="middle" fill="#475569">异常检测</text>
  <text x="165" y="745" font-size="9" text-anchor="middle" fill="#475569">实时告警</text>
  
  <rect x="300" y="685" width="210" height="85" fill="white" stroke="#ef4444" stroke-width="1" rx="4"/>
  <text x="405" y="710" font-size="10" font-weight="bold" text-anchor="middle" fill="#b91c1c">响应</text>
  <text x="405" y="730" font-size="9" text-anchor="middle" fill="#475569">应急预案</text>
  <text x="405" y="745" font-size="9" text-anchor="middle" fill="#475569">快速缓解</text>
  
  <rect x="540" y="685" width="210" height="85" fill="white" stroke="#ef4444" stroke-width="1" rx="4"/>
  <text x="645" y="710" font-size="10" font-weight="bold" text-anchor="middle" fill="#b91c1c">报告</text>
  <text x="645" y="730" font-size="9" text-anchor="middle" fill="#475569">审计日志</text>
  <text x="645" y="745" font-size="9" text-anchor="middle" fill="#475569">合规证明</text>
  
  <rect x="780" y="685" width="170" height="85" fill="white" stroke="#ef4444" stroke-width="1" rx="4"/>
  <text x="865" y="710" font-size="10" font-weight="bold" text-anchor="middle" fill="#b91c1c">恢复</text>
  <text x="865" y="730" font-size="9" text-anchor="middle" fill="#475569">数据恢复</text>
  <text x="865" y="745" font-size="9" text-anchor="middle" fill="#475569">服务恢复</text>
</svg>