<?xml version="1.0" encoding="UTF-8"?>
<svg viewBox="0 0 1000 800" xmlns="http://www.w3.org/2000/svg">
  <defs>
    <style type="text/css">
      @import url('https://fonts.googleapis.com/css2?family=Noto+Sans+SC:wght@400;600;700');
      text { font-family: 'Noto Sans SC', sans-serif; }
    </style>
    <marker id="arrowhead" markerWidth="10" markerHeight="10" refX="5" refY="5" orient="auto">
      <polygon points="0 0, 10 5, 0 10" fill="#64748b"/>
    </marker>
  </defs>
  
  <rect width="1000" height="800" fill="#f8fafc"/>
  <text x="500" y="35" font-size="24" font-weight="bold" text-anchor="middle" fill="#1e293b">DRM数字证书文件保护系统</text>
  
  <rect x="30" y="85" width="940" height="280" fill="#e0f2fe" stroke="#0284c7" stroke-width="2" rx="8"/>
  <text x="500" y="115" font-size="14" font-weight="bold" fill="#0c4a6e">DRM系统架构</text>
  
  <rect x="50" y="135" width="180" height="100" fill="white" stroke="#0284c7" stroke-width="2" rx="4"/>
  <text x="140" y="160" font-size="11" font-weight="bold" text-anchor="middle" fill="#0c4a6e">PKI基础设施</text>
  <text x="140" y="180" font-size="9" text-anchor="middle" fill="#475569">根证书机构</text>
  <text x="140" y="195" font-size="9" text-anchor="middle" fill="#475569">中间证书机构</text>
  <text x="140" y="210" font-size="9" text-anchor="middle" fill="#475569">用户终端证书</text>
  
  <path d="M 230 185 L 280 185" stroke="#64748b" stroke-width="2" fill="none" marker-end="url(#arrowhead)"/>
  
  <rect x="280" y="135" width="180" height="100" fill="white" stroke="#0284c7" stroke-width="2" rx="4"/>
  <text x="370" y="160" font-size="11" font-weight="bold" text-anchor="middle" fill="#0c4a6e">加密引擎</text>
  <text x="370" y="180" font-size="9" text-anchor="middle" fill="#475569">对称加密AES</text>
  <text x="370" y="195" font-size="9" text-anchor="middle" fill="#475569">非对称加密RSA</text>
  <text x="370" y="210" font-size="9" text-anchor="middle" fill="#475569">混合加密方案</text>
  
  <path d="M 460 185 L 510 185" stroke="#64748b" stroke-width="2" fill="none" marker-end="url(#arrowhead)"/>
  
  <rect x="510" y="135" width="180" height="100" fill="white" stroke="#0284c7" stroke-width="2" rx="4"/>
  <text x="600" y="160" font-size="11" font-weight="bold" text-anchor="middle" fill="#0c4a6e">权限管理</text>
  <text x="600" y="180" font-size="9" text-anchor="middle" fill="#475569">基础权限控制</text>
  <text x="600" y="195" font-size="9" text-anchor="middle" fill="#475569">高级权限策略</text>
  <text x="600" y="210" font-size="9" text-anchor="middle" fill="#475569">时间次数限制</text>
  
  <path d="M 690 185 L 740 185" stroke="#64748b" stroke-width="2" fill="none" marker-end="url(#arrowhead)"/>
  
  <rect x="740" y="135" width="180" height="100" fill="white" stroke="#0284c7" stroke-width="2" rx="4"/>
  <text x="830" y="160" font-size="11" font-weight="bold" text-anchor="middle" fill="#0c4a6e">监控审计</text>
  <text x="830" y="180" font-size="9" text-anchor="middle" fill="#475569">实时监控系统</text>
  <text x="830" y="195" font-size="9" text-anchor="middle" fill="#475569">完整审计日志</text>
  <text x="830" y="210" font-size="9" text-anchor="middle" fill="#475569">异常告警机制</text>
  
  <rect x="50" y="260" width="870" height="90" fill="#f0f9ff" stroke="#3b82f6" stroke-width="1" rx="4"/>
  <text x="500" y="280" font-size="11" font-weight="bold" text-anchor="middle" fill="#1e40af">文档管理工作流</text>
  
  <circle cx="110" cy="330" r="18" fill="#3b82f6"/>
  <text x="110" y="337" font-size="12" text-anchor="middle" fill="white">1</text>
  <text x="110" y="355" font-size="9" text-anchor="middle" fill="#1e293b">上传文件</text>
  
  <path d="M 128 330 L 158 330" stroke="#64748b" stroke-width="1" fill="none" marker-end="url(#arrowhead)"/>
  
  <circle cx="188" cy="330" r="18" fill="#3b82f6"/>
  <text x="188" y="337" font-size="12" text-anchor="middle" fill="white">2</text>
  <text x="188" y="355" font-size="9" text-anchor="middle" fill="#1e293b">加密处理</text>
  
  <path d="M 206 330 L 236 330" stroke="#64748b" stroke-width="1" fill="none" marker-end="url(#arrowhead)"/>
  
  <circle cx="266" cy="330" r="18" fill="#3b82f6"/>
  <text x="266" y="337" font-size="12" text-anchor="middle" fill="white">3</text>
  <text x="266" y="355" font-size="9" text-anchor="middle" fill="#1e293b">配置权限</text>
  
  <path d="M 284 330 L 314 330" stroke="#64748b" stroke-width="1" fill="none" marker-end="url(#arrowhead)"/>
  
  <circle cx="344" cy="330" r="18" fill="#3b82f6"/>
  <text x="344" y="337" font-size="12" text-anchor="middle" fill="white">4</text>
  <text x="344" y="355" font-size="9" text-anchor="middle" fill="#1e293b">签发证书</text>
  
  <path d="M 362 330 L 392 330" stroke="#64748b" stroke-width="1" fill="none" marker-end="url(#arrowhead)"/>
  
  <circle cx="422" cy="330" r="18" fill="#3b82f6"/>
  <text x="422" y="337" font-size="12" text-anchor="middle" fill="white">5</text>
  <text x="422" y="355" font-size="9" text-anchor="middle" fill="#1e293b">分发证书</text>
  
  <path d="M 440 330 L 470 330" stroke="#64748b" stroke-width="1" fill="none" marker-end="url(#arrowhead)"/>
  
  <circle cx="500" cy="330" r="18" fill="#3b82f6"/>
  <text x="500" y="337" font-size="12" text-anchor="middle" fill="white">6</text>
  <text x="500" y="355" font-size="9" text-anchor="middle" fill="#1e293b">使用验证</text>
  
  <path d="M 518 330 L 548 330" stroke="#64748b" stroke-width="1" fill="none" marker-end="url(#arrowhead)"/>
  
  <circle cx="578" cy="330" r="18" fill="#3b82f6"/>
  <text x="578" y="337" font-size="12" text-anchor="middle" fill="white">7</text>
  <text x="578" y="355" font-size="9" text-anchor="middle" fill="#1e293b">监控追踪</text>
  
  <path d="M 596 330 L 626 330" stroke="#64748b" stroke-width="1" fill="none" marker-end="url(#arrowhead)"/>
  
  <circle cx="656" cy="330" r="18" fill="#3b82f6"/>
  <text x="656" y="337" font-size="12" text-anchor="middle" fill="white">8</text>
  <text x="656" y="355" font-size="9" text-anchor="middle" fill="#1e293b">证书撤销</text>
  
  <rect x="30" y="385" width="940" height="200" fill="#f0fdf4" stroke="#22c55e" stroke-width="2" rx="8"/>
  <text x="500" y="415" font-size="14" font-weight="bold" fill="#166534">三层加密防护体系</text>
  
  <rect x="50" y="435" width="280" height="140" fill="white" stroke="#22c55e" stroke-width="2" rx="4"/>
  <text x="190" y="460" font-size="11" font-weight="bold" text-anchor="middle" fill="#166534">第一层对称加密</text>
  <text x="190" y="480" font-size="9" text-anchor="middle" fill="#475569">算法AES-256</text>
  <text x="190" y="495" font-size="9" text-anchor="middle" fill="#475569">用途文件内容加密</text>
  <text x="190" y="510" font-size="9" text-anchor="middle" fill="#475569">优势高效安全</text>
  <text x="190" y="525" font-size="9" text-anchor="middle" fill="#475569">速度快速加解密</text>
  
  <rect x="360" y="435" width="280" height="140" fill="white" stroke="#22c55e" stroke-width="2" rx="4"/>
  <text x="500" y="460" font-size="11" font-weight="bold" text-anchor="middle" fill="#166534">第二层非对称加密</text>
  <text x="500" y="480" font-size="9" text-anchor="middle" fill="#475569">算法RSA-2048</text>
  <text x="500" y="495" font-size="9" text-anchor="middle" fill="#475569">用途密钥交换保护</text>
  <text x="500" y="510" font-size="9" text-anchor="middle" fill="#475569">优势安全可靠</text>
  <text x="500" y="525" font-size="9" text-anchor="middle" fill="#475569">身份数字签名验证</text>
  
  <rect x="670" y="435" width="280" height="140" fill="white" stroke="#22c55e" stroke-width="2" rx="4"/>
  <text x="810" y="460" font-size="11" font-weight="bold" text-anchor="middle" fill="#166534">第三层混合加密</text>
  <text x="810" y="480" font-size="9" text-anchor="middle" fill="#475569">结合对称非对称</text>
  <text x="810" y="495" font-size="9" text-anchor="middle" fill="#475569">优势性能与安全</text>
  <text x="810" y="510" font-size="9" text-anchor="middle" fill="#475569">证书完整证书链</text>
  <text x="810" y="525" font-size="9" text-anchor="middle" fill="#475569">验证多重身份验证</text>
  
  <rect x="30" y="605" width="940" height="170" fill="#fce7f3" stroke="#ec4899" stroke-width="2" rx="8"/>
  <text x="500" y="635" font-size="14" font-weight="bold" fill="#831843">证书生命周期管理</text>
  
  <rect x="60" y="660" width="170" height="100" fill="white" stroke="#ec4899" stroke-width="2" rx="4"/>
  <text x="145" y="680" font-size="10" font-weight="bold" text-anchor="middle" fill="#831843">证书申请</text>
  <text x="145" y="697" font-size="8" text-anchor="middle" fill="#475569">身份验证</text>
  <text x="145" y="710" font-size="8" text-anchor="middle" fill="#475569">权限审核</text>
  
  <path d="M 230 710 L 270 710" stroke="#64748b" stroke-width="2" fill="none" marker-end="url(#arrowhead)"/>
  
  <rect x="270" y="660" width="170" height="100" fill="white" stroke="#ec4899" stroke-width="2" rx="4"/>
  <text x="355" y="680" font-size="10" font-weight="bold" text-anchor="middle" fill="#831843">证书使用</text>
  <text x="355" y="697" font-size="8" text-anchor="middle" fill="#475569">身份验证</text>
  <text x="355" y="710" font-size="8" text-anchor="middle" fill="#475569">权限验证</text>
  
  <path d="M 440 710 L 480 710" stroke="#64748b" stroke-width="2" fill="none" marker-end="url(#arrowhead)"/>
  
  <rect x="480" y="660" width="170" height="100" fill="white" stroke="#ec4899" stroke-width="2" rx="4"/>
  <text x="565" y="680" font-size="10" font-weight="bold" text-anchor="middle" fill="#831843">证书更新</text>
  <text x="565" y="697" font-size="8" text-anchor="middle" fill="#475569">到期提醒</text>
  <text x="565" y="710" font-size="8" text-anchor="middle" fill="#475569">证书续期</text>
  
  <path d="M 650 710 L 690 710" stroke="#64748b" stroke-width="2" fill="none" marker-end="url(#arrowhead)"/>
  
  <rect x="690" y="660" width="170" height="100" fill="white" stroke="#ec4899" stroke-width="2" rx="4"/>
  <text x="775" y="680" font-size="10" font-weight="bold" text-anchor="middle" fill="#831843">证书撤销</text>
  <text x="775" y="697" font-size="8" text-anchor="middle" fill="#475569">撤销申请</text>
  <text x="775" y="710" font-size="8" text-anchor="middle" fill="#475569">权限回收</text>
</svg>
