<?xml version="1.0" encoding="UTF-8"?>
<svg viewBox="0 0 1000 700" xmlns="http://www.w3.org/2000/svg">
  <defs>
    <style type="text/css">
      @import url('https://fonts.googleapis.com/css2?family=Noto+Sans+SC:wght@400;600;700');
      text { font-family: 'Noto Sans SC', sans-serif; }
    </style>
  </defs>
  
  <rect width="1000" height="700" fill="#f8fafc"/>
  <text x="500" y="35" font-size="24" font-weight="bold" text-anchor="middle" fill="#1e293b">MaiPDF vs 传统分享方式对比</text>
  
  <rect x="30" y="85" width="180" height="50" fill="#1e293b" stroke="#64748b" stroke-width="1" rx="4"/>
  <text x="120" y="115" font-size="12" font-weight="bold" text-anchor="middle" fill="white">功能特性</text>
  
  <rect x="220" y="85" width="190" height="50" fill="#10b981" stroke="#64748b" stroke-width="1" rx="4"/>
  <text x="315" y="115" font-size="12" font-weight="bold" text-anchor="middle" fill="white">MaiPDF</text>
  
  <rect x="420" y="85" width="180" height="50" fill="#ef4444" stroke="#64748b" stroke-width="1" rx="4"/>
  <text x="510" y="115" font-size="12" font-weight="bold" text-anchor="middle" fill="white">邮件附件</text>
  
  <rect x="610" y="85" width="180" height="50" fill="#ef4444" stroke="#64748b" stroke-width="1" rx="4"/>
  <text x="700" y="115" font-size="12" font-weight="bold" text-anchor="middle" fill="white">普通网盘</text>
  
  <rect x="800" y="85" width="170" height="50" fill="#ef4444" stroke="#64748b" stroke-width="1" rx="4"/>
  <text x="885" y="115" font-size="12" font-weight="bold" text-anchor="middle" fill="white">Google Drive</text>
  
  <rect x="30" y="145" width="180" height="50" fill="#f0fdf4" stroke="#d1d5db" stroke-width="1" rx="4"/>
  <text x="120" y="170" font-size="11" text-anchor="middle" fill="#1e293b">访问次数控制</text>
  
  <rect x="220" y="145" width="190" height="50" fill="#dcfce7" stroke="#22c55e" stroke-width="2" rx="4"/>
  <text x="315" y="173" font-size="18" text-anchor="middle" fill="#16a34a">Y</text>
  
  <rect x="420" y="145" width="180" height="50" fill="#fee2e2" stroke="#ef4444" stroke-width="2" rx="4"/>
  <text x="510" y="173" font-size="18" text-anchor="middle" fill="#b91c1c">N</text>
  
  <rect x="610" y="145" width="180" height="50" fill="#fee2e2" stroke="#ef4444" stroke-width="2" rx="4"/>
  <text x="700" y="173" font-size="18" text-anchor="middle" fill="#b91c1c">N</text>
  
  <rect x="800" y="145" width="170" height="50" fill="#fee2e2" stroke="#ef4444" stroke-width="2" rx="4"/>
  <text x="885" y="173" font-size="18" text-anchor="middle" fill="#b91c1c">N</text>
  
  <rect x="30" y="205" width="180" height="50" fill="#f0fdf4" stroke="#d1d5db" stroke-width="1" rx="4"/>
  <text x="120" y="230" font-size="11" text-anchor="middle" fill="#1e293b">禁止下载打印</text>
  
  <rect x="220" y="205" width="190" height="50" fill="#dcfce7" stroke="#22c55e" stroke-width="2" rx="4"/>
  <text x="315" y="233" font-size="18" text-anchor="middle" fill="#16a34a">Y</text>
  
  <rect x="420" y="205" width="180" height="50" fill="#fee2e2" stroke="#ef4444" stroke-width="2" rx="4"/>
  <text x="510" y="233" font-size="18" text-anchor="middle" fill="#b91c1c">N</text>
  
  <rect x="610" y="205" width="180" height="50" fill="#fee2e2" stroke="#ef4444" stroke-width="2" rx="4"/>
  <text x="700" y="233" font-size="18" text-anchor="middle" fill="#b91c1c">N</text>
  
  <rect x="800" y="205" width="170" height="50" fill="#fee2e2" stroke="#ef4444" stroke-width="2" rx="4"/>
  <text x="885" y="233" font-size="18" text-anchor="middle" fill="#b91c1c">N</text>
  
  <rect x="30" y="265" width="180" height="50" fill="#f0fdf4" stroke="#d1d5db" stroke-width="1" rx="4"/>
  <text x="120" y="290" font-size="11" text-anchor="middle" fill="#1e293b">身份验证</text>
  
  <rect x="220" y="265" width="190" height="50" fill="#dcfce7" stroke="#22c55e" stroke-width="2" rx="4"/>
  <text x="315" y="293" font-size="18" text-anchor="middle" fill="#16a34a">Y</text>
  
  <rect x="420" y="265" width="180" height="50" fill="#fee2e2" stroke="#ef4444" stroke-width="2" rx="4"/>
  <text x="510" y="293" font-size="18" text-anchor="middle" fill="#b91c1c">N</text>
  
  <rect x="610" y="265" width="180" height="50" fill="#fee2e2" stroke="#ef4444" stroke-width="2" rx="4"/>
  <text x="700" y="293" font-size="18" text-anchor="middle" fill="#b91c1c">N</text>
  
  <rect x="800" y="265" width="170" height="50" fill="#fee2e2" stroke="#ef4444" stroke-width="2" rx="4"/>
  <text x="885" y="293" font-size="18" text-anchor="middle" fill="#b91c1c">N</text>
  
  <rect x="30" y="325" width="180" height="50" fill="#f0fdf4" stroke="#d1d5db" stroke-width="1" rx="4"/>
  <text x="120" y="350" font-size="11" text-anchor="middle" fill="#1e293b">访问记录追踪</text>
  
  <rect x="220" y="325" width="190" height="50" fill="#dcfce7" stroke="#22c55e" stroke-width="2" rx="4"/>
  <text x="315" y="353" font-size="18" text-anchor="middle" fill="#16a34a">Y</text>
  
  <rect x="420" y="325" width="180" height="50" fill="#fee2e2" stroke="#ef4444" stroke-width="2" rx="4"/>
  <text x="510" y="353" font-size="18" text-anchor="middle" fill="#b91c1c">N</text>
  
  <rect x="610" y="325" width="180" height="50" fill="#fee2e2" stroke="#ef4444" stroke-width="2" rx="4"/>
  <text x="700" y="353" font-size="18" text-anchor="middle" fill="#b91c1c">N</text>
  
  <rect x="800" y="325" width="170" height="50" fill="#fee2e2" stroke="#ef4444" stroke-width="2" rx="4"/>
  <text x="885" y="353" font-size="18" text-anchor="middle" fill="#b91c1c">N</text>
  
  <rect x="30" y="385" width="180" height="50" fill="#f0fdf4" stroke="#d1d5db" stroke-width="1" rx="4"/>
  <text x="120" y="410" font-size="11" text-anchor="middle" fill="#1e293b">动态水印</text>
  
  <rect x="220" y="385" width="190" height="50" fill="#dcfce7" stroke="#22c55e" stroke-width="2" rx="4"/>
  <text x="315" y="413" font-size="18" text-anchor="middle" fill="#16a34a">Y</text>
  
  <rect x="420" y="385" width="180" height="50" fill="#fee2e2" stroke="#ef4444" stroke-width="2" rx="4"/>
  <text x="510" y="413" font-size="18" text-anchor="middle" fill="#b91c1c">N</text>
  
  <rect x="610" y="385" width="180" height="50" fill="#fee2e2" stroke="#ef4444" stroke-width="2" rx="4"/>
  <text x="700" y="413" font-size="18" text-anchor="middle" fill="#b91c1c">N</text>
  
  <rect x="800" y="385" width="170" height="50" fill="#fee2e2" stroke="#ef4444" stroke-width="2" rx="4"/>
  <text x="885" y="413" font-size="18" text-anchor="middle" fill="#b91c1c">N</text>
  
  <rect x="30" y="445" width="180" height="50" fill="#f0fdf4" stroke="#d1d5db" stroke-width="1" rx="4"/>
  <text x="120" y="470" font-size="11" text-anchor="middle" fill="#1e293b">安全存储</text>
  
  <rect x="220" y="445" width="190" height="50" fill="#dcfce7" stroke="#22c55e" stroke-width="2" rx="4"/>
  <text x="315" y="473" font-size="18" text-anchor="middle" fill="#16a34a">Y</text>
  
  <rect x="420" y="445" width="180" height="50" fill="#fecaca" stroke="#ef4444" stroke-width="2" rx="4"/>
  <text x="510" y="473" font-size="18" text-anchor="middle" fill="#b91c1c">~</text>
  
  <rect x="610" y="445" width="180" height="50" fill="#fecaca" stroke="#ef4444" stroke-width="2" rx="4"/>
  <text x="700" y="473" font-size="18" text-anchor="middle" fill="#b91c1c">~</text>
  
  <rect x="800" y="445" width="170" height="50" fill="#fecaca" stroke="#ef4444" stroke-width="2" rx="4"/>
  <text x="885" y="473" font-size="18" text-anchor="middle" fill="#b91c1c">~</text>
  
  <rect x="30" y="525" width="940" height="165" fill="#e0f2fe" stroke="#0284c7" stroke-width="2" rx="8"/>
  <text x="500" y="555" font-size="13" font-weight="bold" text-anchor="middle" fill="#0c4a6e">MaiPDF 的核心优势总结</text>
  
  <text x="50" y="580" font-size="11" fill="#1e293b">企业级权限控制：精确到每一次访问，掌控访问次数、有效期、下载权限</text>
  
  <text x="50" y="605" font-size="11" fill="#1e293b">完整的安全防护：邮箱手机验证、动态水印、禁止下载打印，多重防线</text>
  
  <text x="50" y="630" font-size="11" fill="#1e293b">精准的数据追踪：详细记录每次访问的时间、IP、设备等信息，了解文档流转全过程</text>
  
  <text x="50" y="655" font-size="11" fill="#1e293b">企业级存储：Cloudflare R2全球加速，性能稳定可靠</text>
  
  <text x="50" y="680" font-size="11" fill="#1e293b">一键禁用：随时停止分享，权限永久回收</text>

  <g id="platform-watermark">
    <rect x="60%" y="92%" width="38%" height="6%" rx="6" fill="#ffffff" opacity="0.75"/>
    <text x="97%" y="96%" text-anchor="end" dominant-baseline="middle"
          font-size="12" font-family="Arial, sans-serif" fill="#0f172a" opacity="0.55">MaiPDF • Online</text>
  </g>
</svg>
