<?xml version="1.0" encoding="UTF-8"?>
<svg viewBox="0 0 1000 650" xmlns="http://www.w3.org/2000/svg">
  <defs>
    <style type="text/css">
      @import url('https://fonts.googleapis.com/css2?family=Noto+Sans+SC:wght@400;600;700');
      text { font-family: 'Noto Sans SC', sans-serif; }
    </style>
    <marker id="arrowhead" markerWidth="10" markerHeight="10" refX="5" refY="5" orient="auto">
      <polygon points="0 0, 10 5, 0 10" fill="#64748b"/>
    </marker>
  </defs>
  <rect width="1000" height="650" fill="#f8fafc"/>
  <text x="500" y="35" font-size="24" font-weight="bold" text-anchor="middle" fill="#1e293b">PDF在线浏览工作流程</text>
  <rect x="30" y="70" width="420" height="550" fill="#eff6ff" stroke="#3b82f6" stroke-width="2" rx="8"/>
  <text x="240" y="100" font-size="15" font-weight="bold" fill="#1e40af">服务器端处理</text>
  <rect x="50" y="130" width="380" height="65" fill="white" stroke="#3b82f6" stroke-width="2" rx="4"/>
  <text x="240" y="155" font-size="12" font-weight="bold" text-anchor="middle" fill="#1e40af">1接收PDF文件</text>
  <text x="240" y="172" font-size="9" text-anchor="middle" fill="#475569">检验格式完整性</text>
  <path d="M 240 195 L 240 230" stroke="#64748b" stroke-width="2" fill="none" marker-end="url(#arrowhead)"/>
  <rect x="50" y="230" width="380" height="65" fill="white" stroke="#3b82f6" stroke-width="2" rx="4"/>
  <text x="240" y="255" font-size="12" font-weight="bold" text-anchor="middle" fill="#1e40af">2云端存储处理</text>
  <text x="240" y="272" font-size="9" text-anchor="middle" fill="#475569">Cloudflare R2加密</text>
  <path d="M 240 295 L 240 330" stroke="#64748b" stroke-width="2" fill="none" marker-end="url(#arrowhead)"/>
  <rect x="50" y="330" width="380" height="65" fill="white" stroke="#3b82f6" stroke-width="2" rx="4"/>
  <text x="240" y="355" font-size="12" font-weight="bold" text-anchor="middle" fill="#1e40af">3权限配置</text>
  <text x="240" y="372" font-size="9" text-anchor="middle" fill="#475569">保存访问限制设置</text>
  <path d="M 240 395 L 240 430" stroke="#64748b" stroke-width="2" fill="none" marker-end="url(#arrowhead)"/>
  <rect x="50" y="430" width="380" height="80" fill="white" stroke="#3b82f6" stroke-width="2" rx="4"/>
  <text x="240" y="460" font-size="12" font-weight="bold" text-anchor="middle" fill="#1e40af">4生成分享链接</text>
  <text x="240" y="477" font-size="9" text-anchor="middle" fill="#475569">生成访问链接</text>
  <text x="240" y="491" font-size="9" text-anchor="middle" fill="#475569">生成二维码</text>
  <rect x="550" y="70" width="420" height="550" fill="#f0fdf4" stroke="#22c55e" stroke-width="2" rx="8"/>
  <text x="760" y="100" font-size="15" font-weight="bold" fill="#166534">客户端展示</text>
  <rect x="570" y="130" width="380" height="65" fill="white" stroke="#22c55e" stroke-width="2" rx="4"/>
  <text x="760" y="155" font-size="12" font-weight="bold" text-anchor="middle" fill="#166534">1用户访问链接</text>
  <text x="760" y="172" font-size="9" text-anchor="middle" fill="#475569">点击链接或扫码</text>
  <path d="M 760 195 L 760 230" stroke="#64748b" stroke-width="2" fill="none" marker-end="url(#arrowhead)"/>
  <rect x="570" y="230" width="380" height="65" fill="white" stroke="#22c55e" stroke-width="2" rx="4"/>
  <text x="760" y="255" font-size="12" font-weight="bold" text-anchor="middle" fill="#166534">2身份验证</text>
  <text x="760" y="272" font-size="9" text-anchor="middle" fill="#475569">邮箱手机验证可选</text>
  <path d="M 760 295 L 760 330" stroke="#64748b" stroke-width="2" fill="none" marker-end="url(#arrowhead)"/>
  <rect x="570" y="330" width="380" height="65" fill="white" stroke="#22c55e" stroke-width="2" rx="4"/>
  <text x="760" y="355" font-size="12" font-weight="bold" text-anchor="middle" fill="#166534">3在线浏览PDF</text>
  <text x="760" y="372" font-size="9" text-anchor="middle" fill="#475569">显示水印禁止下载</text>
  <path d="M 760 395 L 760 430" stroke="#64748b" stroke-width="2" fill="none" marker-end="url(#arrowhead)"/>
  <rect x="570" y="430" width="380" height="80" fill="white" stroke="#22c55e" stroke-width="2" rx="4"/>
  <text x="760" y="460" font-size="12" font-weight="bold" text-anchor="middle" fill="#166534">4系统自动追踪</text>
  <text x="760" y="477" font-size="9" text-anchor="middle" fill="#475569">记录访问时间IP地址</text>
  <text x="760" y="491" font-size="9" text-anchor="middle" fill="#475569">检查访问次数限制</text>
</svg>
