<?xml version="1.0" encoding="UTF-8"?>
<svg viewBox="0 0 900 700" xmlns="http://www.w3.org/2000/svg">
  <defs>
    <style type="text/css">
      @import url('https://fonts.googleapis.com/css2?family=Noto+Sans+SC:wght@400;600;700');
      text { font-family: 'Noto Sans SC', sans-serif; }
    </style>
    <marker id="arrowhead" markerWidth="10" markerHeight="10" refX="5" refY="5" orient="auto">
      <polygon points="0 0, 10 5, 0 10" fill="#64748b"/>
    </marker>
  </defs>
  
  <rect width="900" height="700" fill="#f8fafc"/>
  <text x="450" y="35" font-size="24" font-weight="bold" text-anchor="middle" fill="#1e293b">PDF 安全分享的完整流程</text>
  
  <rect x="50" y="70" width="800" height="130" fill="#e0f2fe" stroke="#0284c7" stroke-width="2" rx="8"/>
  <text x="60" y="95" font-size="13" font-weight="bold" fill="#0c4a6e">第一步：文件上传与识别</text>
  
  <circle cx="120" cy="165" r="25" fill="#3b82f6"/>
  <text x="120" y="170" font-size="16" text-anchor="middle" fill="white">U</text>
  <text x="120" y="195" font-size="10" text-anchor="middle" fill="#1e293b">用户</text>
  
  <path d="M 145 165 L 200 165" stroke="#64748b" stroke-width="2" fill="none" marker-end="url(#arrowhead)"/>
  
  <rect x="200" y="140" width="90" height="50" fill="#fef3c7" stroke="#f59e0b" stroke-width="2" rx="4"/>
  <text x="245" y="170" font-size="10" text-anchor="middle" fill="#92400e">选择文件</text>
  
  <path d="M 290 165 L 345 165" stroke="#64748b" stroke-width="2" fill="none" marker-end="url(#arrowhead)"/>
  
  <rect x="345" y="140" width="90" height="50" fill="#dbeafe" stroke="#3b82f6" stroke-width="2" rx="4"/>
  <text x="390" y="170" font-size="10" text-anchor="middle" fill="#1e40af">上传服务器</text>
  
  <path d="M 435 165 L 490 165" stroke="#64748b" stroke-width="2" fill="none" marker-end="url(#arrowhead)"/>
  
  <rect x="490" y="140" width="90" height="50" fill="#dcfce7" stroke="#22c55e" stroke-width="2" rx="4"/>
  <text x="535" y="170" font-size="10" text-anchor="middle" fill="#166534">验证处理</text>
  
  <path d="M 580 165 L 635 165" stroke="#64748b" stroke-width="2" fill="none" marker-end="url(#arrowhead)"/>
  
  <rect x="635" y="140" width="90" height="50" fill="#f3e8ff" stroke="#a855f7" stroke-width="2" rx="4"/>
  <text x="680" y="170" font-size="10" text-anchor="middle" fill="#6b21a8">存储完成</text>
  
  <rect x="50" y="220" width="800" height="140" fill="#f0fdf4" stroke="#22c55e" stroke-width="2" rx="8"/>
  <text x="60" y="245" font-size="13" font-weight="bold" fill="#166534">第二步：权限配置与安全设置</text>
  
  <rect x="70" y="270" width="130" height="70" fill="white" stroke="#10b981" stroke-width="2" rx="4"/>
  <text x="135" y="295" font-size="10" font-weight="bold" text-anchor="middle" fill="#047857">访问次数</text>
  <text x="135" y="310" font-size="9" text-anchor="middle" fill="#475569">3次 10次 无限</text>
  
  <rect x="220" y="270" width="130" height="70" fill="white" stroke="#10b981" stroke-width="2" rx="4"/>
  <text x="285" y="295" font-size="10" font-weight="bold" text-anchor="middle" fill="#047857">有效期</text>
  <text x="285" y="310" font-size="9" text-anchor="middle" fill="#475569">7天 30天 1年</text>
  
  <rect x="370" y="270" width="130" height="70" fill="white" stroke="#10b981" stroke-width="2" rx="4"/>
  <text x="435" y="295" font-size="10" font-weight="bold" text-anchor="middle" fill="#047857">下载权限</text>
  <text x="435" y="310" font-size="9" text-anchor="middle" fill="#475569">仅在线浏览</text>
  
  <rect x="520" y="270" width="130" height="70" fill="white" stroke="#10b981" stroke-width="2" rx="4"/>
  <text x="585" y="295" font-size="10" font-weight="bold" text-anchor="middle" fill="#047857">动态水印</text>
  <text x="585" y="310" font-size="9" text-anchor="middle" fill="#475569">个性化显示</text>
  
  <rect x="670" y="270" width="130" height="70" fill="white" stroke="#10b981" stroke-width="2" rx="4"/>
  <text x="735" y="295" font-size="10" font-weight="bold" text-anchor="middle" fill="#047857">身份验证</text>
  <text x="735" y="310" font-size="9" text-anchor="middle" fill="#475569">邮箱手机验证</text>
  
  <rect x="50" y="380" width="800" height="120" fill="#fef3c7" stroke="#f59e0b" stroke-width="2" rx="8"/>
  <text x="60" y="405" font-size="13" font-weight="bold" fill="#92400e">第三步：生成链接与二维码</text>
  
  <circle cx="150" cy="455" r="30" fill="#f59e0b"/>
  <text x="150" y="465" font-size="14" text-anchor="middle" fill="white">L</text>
  <text x="150" y="495" font-size="10" text-anchor="middle" fill="#1e293b">在线链接</text>
  
  <path d="M 180 455 L 230 455" stroke="#64748b" stroke-width="2" fill="none" marker-end="url(#arrowhead)"/>
  
  <circle cx="290" cy="455" r="30" fill="#f59e0b"/>
  <text x="290" y="465" font-size="14" text-anchor="middle" fill="white">Q</text>
  <text x="290" y="495" font-size="10" text-anchor="middle" fill="#1e293b">二维码</text>
  
  <path d="M 320 455 L 370 455" stroke="#64748b" stroke-width="2" fill="none" marker-end="url(#arrowhead)"/>
  
  <rect x="370" y="420" width="300" height="70" fill="white" stroke="#f59e0b" stroke-width="2" rx="4"/>
  <text x="520" y="445" font-size="11" font-weight="bold" text-anchor="middle" fill="#92400e">选择分享渠道</text>
  <text x="520" y="465" font-size="10" text-anchor="middle" fill="#475569">微信 邮件 QQ 钉钉 社交媒体</text>
  
  <rect x="50" y="520" width="800" height="130" fill="#fce7f3" stroke="#ec4899" stroke-width="2" rx="8"/>
  <text x="60" y="545" font-size="13" font-weight="bold" fill="#831843">第四步：用户查看与访问追踪</text>
  
  <circle cx="100" cy="605" r="20" fill="#ec4899"/>
  <text x="100" y="612" font-size="12" text-anchor="middle" fill="white">1</text>
  <text x="100" y="635" font-size="9" text-anchor="middle" fill="#1e293b">接收</text>
  
  <path d="M 120 605 L 160 605" stroke="#64748b" stroke-width="2" fill="none" marker-end="url(#arrowhead)"/>
  
  <circle cx="190" cy="605" r="20" fill="#ec4899"/>
  <text x="190" y="612" font-size="12" text-anchor="middle" fill="white">2</text>
  <text x="190" y="635" font-size="9" text-anchor="middle" fill="#1e293b">点击</text>
  
  <path d="M 210 605 L 250 605" stroke="#64748b" stroke-width="2" fill="none" marker-end="url(#arrowhead)"/>
  
  <circle cx="280" cy="605" r="20" fill="#ec4899"/>
  <text x="280" y="612" font-size="12" text-anchor="middle" fill="white">3</text>
  <text x="280" y="635" font-size="9" text-anchor="middle" fill="#1e293b">查看</text>
  
  <path d="M 300 605 L 340 605" stroke="#64748b" stroke-width="2" fill="none" marker-end="url(#arrowhead)"/>
  
  <circle cx="370" cy="605" r="20" fill="#ec4899"/>
  <text x="370" y="612" font-size="12" text-anchor="middle" fill="white">4</text>
  <text x="370" y="635" font-size="9" text-anchor="middle" fill="#1e293b">记录</text>
  
  <path d="M 390 605 L 430 605" stroke="#64748b" stroke-width="2" fill="none" marker-end="url(#arrowhead)"/>
  
  <circle cx="460" cy="605" r="20" fill="#ec4899"/>
  <text x="460" y="612" font-size="12" text-anchor="middle" fill="white">5</text>
  <text x="460" y="635" font-size="9" text-anchor="middle" fill="#1e293b">分析</text>
</svg>
