<?xml version="1.0" encoding="UTF-8"?>
<svg viewBox="0 0 1000 750" xmlns="http://www.w3.org/2000/svg">
  <defs>
    <style type="text/css">
      @import url('https://fonts.googleapis.com/css2?family=Noto+Sans+SC:wght@400;600;700');
      text { font-family: 'Noto Sans SC', sans-serif; }
    </style>
    <marker id="arrowhead" markerWidth="10" markerHeight="10" refX="5" refY="5" orient="auto">
      <polygon points="0 0, 10 5, 0 10" fill="#64748b"/>
    </marker>
  </defs>
  
  <rect width="1000" height="750" fill="#f8fafc"/>
  <text x="500" y="35" font-size="24" font-weight="bold" text-anchor="middle" fill="#1e293b">企业级安全标准合规体系</text>
  
  <rect x="30" y="85" width="280" height="640" fill="#e0f2fe" stroke="#0284c7" stroke-width="2" rx="8"/>
  <text x="170" y="115" font-size="12" font-weight="bold" fill="#0c4a6e">国际标准认证</text>
  
  <rect x="50" y="140" width="240" height="100" fill="white" stroke="#0284c7" stroke-width="1" rx="4"/>
  <text x="170" y="165" font-size="11" font-weight="bold" text-anchor="middle" fill="#0c4a6e">ISO27001</text>
  <text x="170" y="185" font-size="9" text-anchor="middle" fill="#475569">信息安全管理体系</text>
  <text x="170" y="200" font-size="9" text-anchor="middle" fill="#475569">全面的安全框架</text>
  <text x="170" y="215" font-size="9" text-anchor="middle" fill="#475569">国际认可标准</text>
  
  <rect x="50" y="260" width="240" height="100" fill="white" stroke="#0284c7" stroke-width="1" rx="4"/>
  <text x="170" y="285" font-size="11" font-weight="bold" text-anchor="middle" fill="#0c4a6e">SOC2</text>
  <text x="170" y="305" font-size="9" text-anchor="middle" fill="#475569">用户信任服务</text>
  <text x="170" y="320" font-size="9" text-anchor="middle" fill="#475569">安全可用性隐私</text>
  <text x="170" y="335" font-size="9" text-anchor="middle" fill="#475569">美国行业标准</text>
  
  <rect x="50" y="380" width="240" height="100" fill="white" stroke="#0284c7" stroke-width="1" rx="4"/>
  <text x="170" y="405" font-size="11" font-weight="bold" text-anchor="middle" fill="#0c4a6e">GDPR</text>
  <text x="170" y="425" font-size="9" text-anchor="middle" fill="#475569">数据保护条例</text>
  <text x="170" y="440" font-size="9" text-anchor="middle" fill="#475569">个人信息安全</text>
  <text x="170" y="455" font-size="9" text-anchor="middle" fill="#475569">欧洲法律合规</text>
  
  <rect x="50" y="500" width="240" height="100" fill="white" stroke="#0284c7" stroke-width="1" rx="4"/>
  <text x="170" y="525" font-size="11" font-weight="bold" text-anchor="middle" fill="#0c4a6e">CCPA</text>
  <text x="170" y="545" font-size="9" text-anchor="middle" fill="#475569">加州隐私法</text>
  <text x="170" y="560" font-size="9" text-anchor="middle" fill="#475569">消费者权益保护</text>
  <text x="170" y="575" font-size="9" text-anchor="middle" fill="#475569">美国州级标准</text>
  
  <rect x="330" y="85" width="280" height="640" fill="#fef3c7" stroke="#f59e0b" stroke-width="2" rx="8"/>
  <text x="470" y="115" font-size="12" font-weight="bold" fill="#92400e">技术安全措施</text>
  
  <rect x="350" y="140" width="240" height="100" fill="white" stroke="#f59e0b" stroke-width="1" rx="4"/>
  <text x="470" y="165" font-size="11" font-weight="bold" text-anchor="middle" fill="#92400e">端到端加密</text>
  <text x="470" y="185" font-size="9" text-anchor="middle" fill="#475569">AES-256加密</text>
  <text x="470" y="200" font-size="9" text-anchor="middle" fill="#475569">TLS 1.3传输</text>
  <text x="470" y="215" font-size="9" text-anchor="middle" fill="#475569">密钥管理安全</text>
  
  <rect x="350" y="260" width="240" height="100" fill="white" stroke="#f59e0b" stroke-width="1" rx="4"/>
  <text x="470" y="285" font-size="11" font-weight="bold" text-anchor="middle" fill="#92400e">多因素认证</text>
  <text x="470" y="305" font-size="9" text-anchor="middle" fill="#475569">邮箱验证</text>
  <text x="470" y="320" font-size="9" text-anchor="middle" fill="#475569">手机短信验证</text>
  <text x="470" y="335" font-size="9" text-anchor="middle" fill="#475569">二次验证支持</text>
  
  <rect x="350" y="380" width="240" height="100" fill="white" stroke="#f59e0b" stroke-width="1" rx="4"/>
  <text x="470" y="405" font-size="11" font-weight="bold" text-anchor="middle" fill="#92400e">入侵检测</text>
  <text x="470" y="425" font-size="9" text-anchor="middle" fill="#475569">实时监控系统</text>
  <text x="470" y="440" font-size="9" text-anchor="middle" fill="#475569">异常告警机制</text>
  <text x="470" y="455" font-size="9" text-anchor="middle" fill="#475569">自动防御响应</text>
  
  <rect x="350" y="500" width="240" height="100" fill="white" stroke="#f59e0b" stroke-width="1" rx="4"/>
  <text x="470" y="525" font-size="11" font-weight="bold" text-anchor="middle" fill="#92400e">备份恢复</text>
  <text x="470" y="545" font-size="9" text-anchor="middle" fill="#475569">多地点备份</text>
  <text x="470" y="560" font-size="9" text-anchor="middle" fill="#475569">99.99%可用性</text>
  <text x="470" y="575" font-size="9" text-anchor="middle" fill="#475569">快速恢复机制</text>
  
  <rect x="630" y="85" width="340" height="640" fill="#f0fdf4" stroke="#22c55e" stroke-width="2" rx="8"/>
  <text x="800" y="115" font-size="12" font-weight="bold" fill="#166534">运营管理体系</text>
  
  <rect x="650" y="140" width="300" height="110" fill="white" stroke="#22c55e" stroke-width="1" rx="4"/>
  <text x="800" y="165" font-size="11" font-weight="bold" text-anchor="middle" fill="#166534">完整审计日志</text>
  <text x="800" y="185" font-size="9" text-anchor="middle" fill="#475569">所有操作记录</text>
  <text x="800" y="200" font-size="9" text-anchor="middle" fill="#475569">时间戳记录</text>
  <text x="800" y="215" font-size="9" text-anchor="middle" fill="#475569">不可否认性</text>
  <text x="800" y="230" font-size="9" text-anchor="middle" fill="#475569">合规审计报告</text>
  
  <rect x="650" y="270" width="300" height="110" fill="white" stroke="#22c55e" stroke-width="1" rx="4"/>
  <text x="800" y="295" font-size="11" font-weight="bold" text-anchor="middle" fill="#166534">人员安全管理</text>
  <text x="800" y="315" font-size="9" text-anchor="middle" fill="#475569">背景审查</text>
  <text x="800" y="330" font-size="9" text-anchor="middle" fill="#475569">安全培训</text>
  <text x="800" y="345" font-size="9" text-anchor="middle" fill="#475569">权限分离</text>
  <text x="800" y="360" font-size="9" text-anchor="middle" fill="#475569">保密协议</text>
  
  <rect x="650" y="400" width="300" height="110" fill="white" stroke="#22c55e" stroke-width="1" rx="4"/>
  <text x="800" y="425" font-size="11" font-weight="bold" text-anchor="middle" fill="#166534">供应链管理</text>
  <text x="800" y="445" font-size="9" text-anchor="middle" fill="#475569">厂商审核</text>
  <text x="800" y="460" font-size="9" text-anchor="middle" fill="#475569">第三方评估</text>
  <text x="800" y="475" font-size="9" text-anchor="middle" fill="#475569">合同管理</text>
  <text x="800" y="490" font-size="9" text-anchor="middle" fill="#475569">风险管理</text>
  
  <rect x="650" y="530" width="300" height="110" fill="white" stroke="#22c55e" stroke-width="1" rx="4"/>
  <text x="800" y="555" font-size="11" font-weight="bold" text-anchor="middle" fill="#166534">事件应急</text>
  <text x="800" y="575" font-size="9" text-anchor="middle" fill="#475569">应急预案</text>
  <text x="800" y="590" font-size="9" text-anchor="middle" fill="#475569">快速响应</text>
  <text x="800" y="605" font-size="9" text-anchor="middle" fill="#475569">影响评估</text>
  <text x="800" y="620" font-size="9" text-anchor="middle" fill="#475569">恢复跟踪</text>
</svg>