<?xml version="1.0" encoding="UTF-8"?>
<svg viewBox="0 0 1000 600" xmlns="http://www.w3.org/2000/svg">
  <defs>
    <style type="text/css">
      @import url('https://fonts.googleapis.com/css2?family=Noto+Sans+SC:wght@400;600;700');
      text { font-family: 'Noto Sans SC', sans-serif; }
    </style>
    <marker id="arrowhead" markerWidth="10" markerHeight="10" refX="5" refY="5" orient="auto">
      <polygon points="0 0, 10 5, 0 10" fill="#64748b"/>
    </marker>
  </defs>
  
  <rect width="1000" height="600" fill="#f8fafc"/>
  <text x="500" y="35" font-size="24" font-weight="bold" text-anchor="middle" fill="#1e293b">版本控制管理</text>
  
  <!-- 版本时间线 -->
  <line x1="100" y1="100" x2="900" y2="100" stroke="#cbd5e1" stroke-width="2"/>
  
  <!-- 版本1 -->
  <circle cx="150" cy="100" r="20" fill="#0284c7"/>
  <text x="150" y="108" font-size="14" font-weight="bold" text-anchor="middle" fill="white">v1.0</text>
  
  <rect x="80" y="140" width="140" height="100" fill="#e0f2fe" stroke="#0284c7" stroke-width="1" rx="4"/>
  <text x="150" y="160" font-size="10" font-weight="bold" text-anchor="middle" fill="#0c4a6e">2024-01-01</text>
  <text x="150" y="180" font-size="9" text-anchor="middle" fill="#475569">初始发布</text>
  <text x="150" y="195" font-size="8" text-anchor="middle" fill="#475569">核心功能</text>
  <text x="150" y="210" font-size="8" text-anchor="middle" fill="#475569">基础API</text>
  
  <!-- 版本2 -->
  <circle cx="350" cy="100" r="20" fill="#f59e0b"/>
  <text x="350" y="108" font-size="14" font-weight="bold" text-anchor="middle" fill="white">v1.5</text>
  
  <rect x="280" y="140" width="140" height="100" fill="#fef3c7" stroke="#f59e0b" stroke-width="1" rx="4"/>
  <text x="350" y="160" font-size="10" font-weight="bold" text-anchor="middle" fill="#92400e">2024-02-15</text>
  <text x="350" y="180" font-size="9" text-anchor="middle" fill="#475569">新增功能</text>
  <text x="350" y="195" font-size="8" text-anchor="middle" fill="#475569">权限管理</text>
  <text x="350" y="210" font-size="8" text-anchor="middle" fill="#475569">性能优化</text>
  
  <!-- 版本3 -->
  <circle cx="550" cy="100" r="20" fill="#a855f7"/>
  <text x="550" y="108" font-size="14" font-weight="bold" text-anchor="middle" fill="white">v2.0</text>
  
  <rect x="480" y="140" width="140" height="100" fill="#f3e8ff" stroke="#a855f7" stroke-width="1" rx="4"/>
  <text x="550" y="160" font-size="10" font-weight="bold" text-anchor="middle" fill="#6b21a8">2024-04-01</text>
  <text x="550" y="180" font-size="9" text-anchor="middle" fill="#475569">大版本更新</text>
  <text x="550" y="195" font-size="8" text-anchor="middle" fill="#475569">架构重构</text>
  <text x="550" y="210" font-size="8" text-anchor="middle" fill="#475569">API v2</text>
  
  <!-- 版本4（当前） -->
  <circle cx="750" cy="100" r="20" fill="#22c55e"/>
  <text x="750" y="108" font-size="14" font-weight="bold" text-anchor="middle" fill="white">v2.5</text>
  
  <rect x="680" y="140" width="140" height="100" fill="#f0fdf4" stroke="#22c55e" stroke-width="2" rx="4"/>
  <text x="750" y="160" font-size="10" font-weight="bold" text-anchor="middle" fill="#166534">当前版本</text>
  <text x="750" y="180" font-size="9" text-anchor="middle" fill="#475569">最新功能</text>
  <text x="750" y="195" font-size="8" text-anchor="middle" fill="#475569">安全增强</text>
  <text x="750" y="210" font-size="8" text-anchor="middle" fill="#475569">AI集成</text>
  
  <!-- 支持状态表 -->
  <text x="500" y="310" font-size="13" font-weight="bold" text-anchor="middle" fill="#1e293b">版本支持状态</text>
  
  <rect x="30" y="330" width="940" height="240" fill="white" stroke="#cbd5e1" stroke-width="1" rx="8"/>
  
  <!-- 表头 -->
  <rect x="30" y="330" width="150" height="50" fill="#f1f5f9" stroke="#cbd5e1" stroke-width="1"/>
  <text x="105" y="360" font-size="11" font-weight="bold" text-anchor="middle" fill="#1e293b">版本</text>
  
  <rect x="180" y="330" width="150" height="50" fill="#f1f5f9" stroke="#cbd5e1" stroke-width="1"/>
  <text x="255" y="360" font-size="11" font-weight="bold" text-anchor="middle" fill="#1e293b">发布日期</text>
  
  <rect x="330" y="330" width="150" height="50" fill="#f1f5f9" stroke="#cbd5e1" stroke-width="1"/>
  <text x="405" y="360" font-size="11" font-weight="bold" text-anchor="middle" fill="#1e293b">支持期限</text>
  
  <rect x="480" y="330" width="150" height="50" fill="#f1f5f9" stroke="#cbd5e1" stroke-width="1"/>
  <text x="555" y="360" font-size="11" font-weight="bold" text-anchor="middle" fill="#1e293b">状态</text>
  
  <rect x="630" y="330" width="340" height="50" fill="#f1f5f9" stroke="#cbd5e1" stroke-width="1"/>
  <text x="800" y="360" font-size="11" font-weight="bold" text-anchor="middle" fill="#1e293b">说明</text>
  
  <!-- v1.0 -->
  <rect x="30" y="380" width="150" height="50" fill="white" stroke="#cbd5e1" stroke-width="1"/>
  <text x="105" y="410" font-size="10" text-anchor="middle" fill="#1e293b">v1.0</text>
  
  <rect x="180" y="380" width="150" height="50" fill="white" stroke="#cbd5e1" stroke-width="1"/>
  <text x="255" y="410" font-size="9" text-anchor="middle" fill="#475569">2024-01-01</text>
  
  <rect x="330" y="380" width="150" height="50" fill="white" stroke="#cbd5e1" stroke-width="1"/>
  <text x="405" y="410" font-size="9" text-anchor="middle" fill="#475569">2024-03-31</text>
  
  <rect x="480" y="380" width="150" height="50" fill="#fee2e2" stroke="#cbd5e1" stroke-width="1"/>
  <text x="555" y="410" font-size="10" font-weight="bold" text-anchor="middle" fill="#b91c1c">终止</text>
  
  <rect x="630" y="380" width="340" height="50" fill="white" stroke="#cbd5e1" stroke-width="1"/>
  <text x="800" y="410" font-size="9" text-anchor="middle" fill="#475569">已停止支持，建议升级</text>
  
  <!-- v1.5 -->
  <rect x="30" y="430" width="150" height="50" fill="white" stroke="#cbd5e1" stroke-width="1"/>
  <text x="105" y="460" font-size="10" text-anchor="middle" fill="#1e293b">v1.5</text>
  
  <rect x="180" y="430" width="150" height="50" fill="white" stroke="#cbd5e1" stroke-width="1"/>
  <text x="255" y="460" font-size="9" text-anchor="middle" fill="#475569">2024-02-15</text>
  
  <rect x="330" y="430" width="150" height="50" fill="white" stroke="#cbd5e1" stroke-width="1"/>
  <text x="405" y="460" font-size="9" text-anchor="middle" fill="#475569">2024-09-30</text>
  
  <rect x="480" y="430" width="150" height="50" fill="#fee2e2" stroke="#cbd5e1" stroke-width="1"/>
  <text x="555" y="460" font-size="10" font-weight="bold" text-anchor="middle" fill="#b91c1c">终止</text>
  
  <rect x="630" y="430" width="340" height="50" fill="white" stroke="#cbd5e1" stroke-width="1"/>
  <text x="800" y="460" font-size="9" text-anchor="middle" fill="#475569">基础支持已结束</text>
  
  <!-- v2.0 -->
  <rect x="30" y="480" width="150" height="50" fill="white" stroke="#cbd5e1" stroke-width="1"/>
  <text x="105" y="510" font-size="10" text-anchor="middle" fill="#1e293b">v2.0</text>
  
  <rect x="180" y="480" width="150" height="50" fill="white" stroke="#cbd5e1" stroke-width="1"/>
  <text x="255" y="510" font-size="9" text-anchor="middle" fill="#475569">2024-04-01</text>
  
  <rect x="330" y="480" width="150" height="50" fill="white" stroke="#cbd5e1" stroke-width="1"/>
  <text x="405" y="510" font-size="9" text-anchor="middle" fill="#475569">2025-04-01</text>
  
  <rect x="480" y="480" width="150" height="50" fill="#fef3c7" stroke="#cbd5e1" stroke-width="1"/>
  <text x="555" y="510" font-size="10" font-weight="bold" text-anchor="middle" fill="#92400e">维护中</text>
  
  <rect x="630" y="480" width="340" height="50" fill="white" stroke="#cbd5e1" stroke-width="1"/>
  <text x="800" y="510" font-size="9" text-anchor="middle" fill="#475569">仅提供安全修复</text>
  
  <!-- v2.5 -->
  <rect x="30" y="530" width="150" height="50" fill="white" stroke="#cbd5e1" stroke-width="1"/>
  <text x="105" y="560" font-size="10" text-anchor="middle" fill="#1e293b">v2.5</text>
  
  <rect x="180" y="530" width="150" height="50" fill="white" stroke="#cbd5e1" stroke-width="1"/>
  <text x="255" y="560" font-size="9" text-anchor="middle" fill="#475569">2024-10-01</text>
  
  <rect x="330" y="530" width="150" height="50" fill="white" stroke="#cbd5e1" stroke-width="1"/>
  <text x="405" y="560" font-size="9" text-anchor="middle" fill="#475569">2026-10-01</text>
  
  <rect x="480" y="530" width="150" height="50" fill="#f0fdf4" stroke="#cbd5e1" stroke-width="1"/>
  <text x="555" y="560" font-size="10" font-weight="bold" text-anchor="middle" fill="#166534">活跃</text>
  
  <rect x="630" y="530" width="340" height="50" fill="white" stroke="#cbd5e1" stroke-width="1"/>
  <text x="800" y="560" font-size="9" text-anchor="middle" fill="#475569">完整功能支持</text>

  <g id="platform-watermark">
    <rect x="60%" y="92%" width="38%" height="6%" rx="6" fill="#ffffff" opacity="0.75"/>
    <text x="97%" y="96%" text-anchor="end" dominant-baseline="middle"
          font-size="12" font-family="Arial, sans-serif" fill="#0f172a" opacity="0.55">MaiPDF • Online</text>
  </g>
</svg>